<?xml version="1.0" standalone="no"?>
<!DOCTYPE svg PUBLIC "-//W3C//DTD SVG 20010904//EN"
 "http://www.w3.org/TR/2001/REC-SVG-20010904/DTD/svg10.dtd">
<svg version="1.0" xmlns="http://www.w3.org/2000/svg"
 width="500.000000pt" height="500.000000pt" viewBox="0 0 500.000000 500.000000"
 preserveAspectRatio="xMidYMid meet">

<g transform="translate(0.000000,500.000000) scale(0.100000,-0.100000)"
fill="#000000" stroke="none">
<path d="M2405 4183 c-449 -29 -866 -230 -1157 -558 -199 -224 -332 -488 -400
-791 -19 -86 -22 -130 -22 -329 -1 -204 2 -242 22 -339 143 -666 658 -1184
1309 -1315 465 -95 936 5 1324 278 120 85 305 270 391 391 142 200 244 444
290 688 16 89 21 157 22 282 0 180 -10 267 -54 437 -157 607 -647 1081 -1260
1217 -108 24 -318 48 -385 44 -16 -1 -52 -3 -80 -5z m45 -148 c0 -8 -7 -15
-15 -15 -16 0 -20 12 -8 23 11 12 23 8 23 -8z m60 0 c0 -8 -7 -15 -15 -15 -8
0 -15 7 -15 15 0 8 7 15 15 15 8 0 15 -7 15 -15z m60 0 c0 -8 -7 -15 -15 -15
-8 0 -15 7 -15 15 0 8 7 15 15 15 8 0 15 -7 15 -15z m-240 -9 c0 -8 -4 -17 -9
-21 -12 -7 -24 12 -16 25 9 15 25 12 25 -4z m60 -1 c0 -8 -7 -15 -15 -15 -8 0
-15 7 -15 15 0 8 7 15 15 15 8 0 15 -7 15 -15z m240 -1 c0 -9 -5 -14 -12 -12
-18 6 -21 28 -4 28 9 0 16 -7 16 -16z m60 1 c0 -8 -7 -15 -15 -15 -8 0 -15 7
-15 15 0 8 7 15 15 15 8 0 15 -7 15 -15z m-420 -10 c0 -8 -7 -15 -15 -15 -16
0 -20 12 -8 23 11 12 23 8 23 -8z m480 0 c0 -8 -7 -15 -15 -15 -8 0 -15 7 -15
15 0 8 7 15 15 15 8 0 15 -7 15 -15z m-536 -10 c3 -9 0 -15 -9 -15 -16 0 -27
14 -18 24 10 10 21 7 27 -9z m596 0 c0 -8 -7 -15 -15 -15 -8 0 -15 7 -15 15 0
8 7 15 15 15 8 0 15 -7 15 -15z m-660 -25 c-9 -6 -17 -5 -22 3 -9 15 14 29 27
16 6 -6 5 -13 -5 -19z m718 12 c2 -7 -3 -12 -12 -12 -9 0 -16 7 -16 16 0 17
22 14 28 -4z m-768 -17 c0 -8 -7 -15 -15 -15 -8 0 -15 7 -15 15 0 8 7 15 15
15 8 0 15 -7 15 -15z m828 3 c-6 -18 -28 -21 -28 -4 0 9 7 16 16 16 9 0 14 -5
12 -12z m55 -24 c-5 -15 -16 -18 -26 -8 -10 11 4 33 18 28 8 -3 11 -12 8 -20z
m-943 1 c0 -8 -7 -15 -15 -15 -8 0 -15 7 -15 15 0 8 7 15 15 15 8 0 15 -7 15
-15z m-60 -29 c-7 -7 -14 -6 -22 2 -10 10 -10 15 2 22 17 11 34 -10 20 -24z
m1060 8 c0 -17 -22 -14 -28 4 -2 7 3 12 12 12 9 0 16 -7 16 -16z m60 -13 c0
-13 -12 -20 -25 -14 -8 2 -11 11 -9 18 6 14 34 10 34 -4z m-1172 -9 c2 -7 -3
-12 -12 -12 -9 0 -16 7 -16 16 0 17 22 14 28 -4z m-62 -28 c-5 -14 -9 -15 -19
-5 -9 9 -9 14 3 21 18 11 24 6 16 -16z m1284 11 c0 -8 -7 -15 -15 -15 -16 0
-20 12 -8 23 11 12 23 8 23 -8z m-1330 -30 c0 -8 -7 -15 -15 -15 -8 0 -15 7
-15 15 0 8 7 15 15 15 8 0 15 -7 15 -15z m1390 6 c0 -14 -18 -23 -30 -16 -6 4
-8 11 -5 16 8 12 35 12 35 0z m-1450 -45 c-15 -15 -33 4 -19 20 10 12 14 12
20 2 5 -7 4 -17 -1 -22z m1495 4 c-5 -8 -11 -8 -17 -2 -6 6 -7 16 -3 22 5 8
11 8 17 2 6 -6 7 -16 3 -22z m55 -26 c0 -16 -16 -19 -25 -4 -8 13 4 32 16 25
5 -4 9 -13 9 -21z m-1599 1 c-1 -15 -24 -12 -29 3 -3 9 2 13 12 10 10 -1 17
-7 17 -13z m1649 -31 c0 -16 -16 -19 -25 -4 -8 13 4 32 16 25 5 -4 9 -13 9
-21z m-1695 7 c7 -12 -12 -24 -25 -16 -11 7 -4 25 10 25 5 0 11 -4 15 -9z
m-55 -55 c-7 -7 -14 -6 -22 2 -10 10 -10 15 2 22 17 11 34 -10 20 -24z m1800
13 c0 -5 -7 -9 -15 -9 -15 0 -20 12 -9 23 8 8 24 -1 24 -14z m-731 -189 c1
-52 -26 -115 -62 -149 l-26 -23 -20 33 c-38 62 -20 167 45 265 l39 60 12 -71
c6 -38 12 -90 12 -115z m-1114 159 c10 -15 -1 -23 -20 -15 -9 3 -13 10 -10 16
8 13 22 13 30 -1z m1893 0 c-2 -6 -8 -10 -13 -10 -5 0 -11 4 -13 10 -2 6 4 11
13 11 9 0 15 -5 13 -11z m52 -39 c0 -13 -19 -22 -30 -15 -14 9 0 34 16 28 8
-3 14 -9 14 -13z m-1990 -5 c0 -8 -7 -15 -15 -15 -8 0 -15 7 -15 15 0 8 7 15
15 15 8 0 15 -7 15 -15z m2025 -45 c-5 -8 -11 -8 -17 -2 -6 6 -7 16 -3 22 5 8
11 8 17 2 6 -6 7 -16 3 -22z m-2070 11 c7 -12 -12 -24 -25 -16 -11 7 -4 25 10
25 5 0 11 -4 15 -9z m1469 -68 c-47 -75 -80 -110 -126 -134 -113 -58 -147 22
-49 114 27 26 60 49 73 52 149 34 145 36 102 -32z m-1514 22 c0 -8 -7 -15 -15
-15 -16 0 -20 12 -8 23 11 12 23 8 23 -8z m2165 6 c7 -12 -12 -24 -25 -16 -11
7 -4 25 10 25 5 0 11 -4 15 -9z m-1079 -139 c3 -68 -1 -103 -12 -130 -15 -36
-61 -92 -75 -92 -11 0 -39 77 -39 108 0 53 26 129 66 188 35 54 40 58 48 40 4
-12 10 -63 12 -114z m-1131 78 c-5 -8 -11 -8 -17 -2 -6 6 -7 16 -3 22 5 8 11
8 17 2 6 -6 7 -16 3 -22z m2250 21 c7 -12 -12 -24 -25 -16 -11 7 -4 25 10 25
5 0 11 -4 15 -9z m37 -63 c-15 -15 -26 -4 -18 18 5 13 9 15 18 6 9 -9 9 -15 0
-24z m-2322 7 c0 -8 -7 -15 -15 -15 -8 0 -15 7 -15 15 0 8 7 15 15 15 8 0 15
-7 15 -15z m-40 -51 c0 -16 -16 -19 -25 -4 -8 13 4 32 16 25 5 -4 9 -13 9 -21z
m2405 17 c7 -12 -12 -24 -25 -16 -11 7 -4 25 10 25 5 0 11 -4 15 -9z m-2442
-47 c10 -11 -4 -33 -18 -28 -8 3 -11 12 -8 20 5 15 16 18 26 8z m1066 -47 c34
-72 37 -221 5 -263 -28 -39 -36 -39 -63 2 -42 61 -40 168 7 275 9 21 19 39 22
39 3 0 16 -24 29 -53z m1411 38 c0 -8 -7 -15 -15 -15 -8 0 -15 7 -15 15 0 8 7
15 15 15 8 0 15 -7 15 -15z m-1111 -52 c-29 -32 -56 -60 -60 -63 -3 -3 -32
-43 -64 -90 -32 -47 -65 -94 -75 -105 -30 -35 -151 -277 -182 -365 -49 -141
-102 -338 -113 -425 -4 -27 -13 -85 -21 -129 -8 -43 -14 -96 -14 -118 0 -54
-35 -220 -67 -320 -51 -159 -188 -398 -260 -451 -16 -13 -7 7 31 65 66 102
108 184 151 297 46 123 62 193 95 429 45 323 87 497 166 693 52 131 60 147
142 284 53 87 91 135 187 233 123 124 183 170 84 65z m-1399 -4 c0 -5 -7 -9
-15 -9 -15 0 -20 12 -9 23 8 8 24 -1 24 -14z m1016 -1 c-4 -13 -9 -38 -13 -55
-7 -41 -33 -43 -68 -6 -18 21 -25 24 -25 12 0 -22 -19 -25 -111 -21 -65 3 -76
6 -73 20 1 9 5 29 9 45 l5 27 141 0 141 0 -6 -22z m582 6 c37 -9 71 -20 75
-24 9 -8 -101 -82 -146 -99 -46 -18 -102 -13 -131 10 -14 11 -26 24 -26 29 0
22 63 79 98 88 52 14 55 14 130 -4z m229 -9 c135 -31 239 -110 295 -223 31
-62 33 -73 33 -172 0 -93 -3 -112 -27 -162 -65 -139 -219 -228 -468 -273 -132
-23 -131 -23 -72 -50 76 -35 154 -117 181 -190 19 -52 23 -88 30 -285 8 -230
13 -260 51 -280 43 -23 117 35 166 131 19 38 38 69 42 69 25 -1 52 -15 52 -27
0 -30 -82 -171 -125 -216 -59 -62 -115 -89 -196 -95 -82 -6 -125 8 -182 58
-86 76 -102 177 -67 420 24 170 22 238 -10 300 -40 78 -133 120 -269 120 -56
0 -62 2 -56 18 4 9 11 29 17 43 l9 26 147 6 c265 10 389 71 460 225 57 123 67
267 25 349 -26 50 -92 99 -160 119 l-55 16 31 32 32 33 -38 16 -38 17 65 -6
c36 -3 93 -12 127 -19z m718 16 c7 -12 -12 -24 -25 -16 -11 7 -4 25 10 25 5 0
11 -4 15 -9z m35 -57 c0 -8 -7 -14 -15 -14 -15 0 -21 21 -9 33 10 9 24 -2 24
-19z m-2615 -2 c0 -18 -20 -15 -23 4 -3 10 1 15 10 12 7 -3 13 -10 13 -16z
m-30 -62 c-5 -8 -11 -8 -17 -2 -6 6 -7 16 -3 22 5 8 11 8 17 2 6 -6 7 -16 3
-22z m2675 15 c0 -8 -7 -15 -15 -15 -8 0 -15 7 -15 15 0 8 7 15 15 15 8 0 15
-7 15 -15z m-1635 -80 c30 -50 50 -149 41 -197 -4 -20 -16 -47 -26 -60 l-20
-23 -30 35 c-53 61 -60 131 -28 270 13 58 15 57 63 -25z m1662 19 c-3 -4 -14
-3 -24 0 -15 6 -15 8 -3 16 16 10 39 -4 27 -16z m-2727 0 c0 -9 -5 -14 -12
-12 -18 6 -21 28 -4 28 9 0 16 -7 16 -16z m1588 -13 c17 -10 -83 -104 -133
-125 -106 -44 -180 9 -113 81 42 46 95 64 168 57 36 -3 71 -9 78 -13z m1162
-45 c-7 -7 -14 -6 -22 2 -10 10 -10 15 2 22 17 11 34 -10 20 -24z m-2776 16
c9 -14 -9 -31 -23 -23 -7 5 -10 14 -7 20 8 13 23 14 30 3z m2804 -60 c2 -7 -3
-12 -12 -12 -9 0 -16 7 -16 16 0 17 22 14 28 -4z m-2828 -8 c0 -17 -22 -14
-28 4 -2 7 3 12 12 12 9 0 16 -7 16 -16z m-25 -52 c0 -18 -20 -15 -23 4 -3 10
1 15 10 12 7 -3 13 -10 13 -16z m2875 3 c0 -8 -7 -15 -15 -15 -8 0 -15 7 -15
15 0 8 7 15 15 15 8 0 15 -7 15 -15z m-1852 -70 c69 -78 99 -162 81 -228 -5
-21 -17 -41 -25 -44 -22 -8 -89 61 -103 106 -13 46 -15 211 -2 211 5 0 27 -20
49 -45z m521 18 c-103 -133 -186 -184 -245 -152 -57 30 -2 124 91 157 17 6 61
11 99 11 64 1 68 0 55 -16z m1351 2 c0 -8 -7 -15 -15 -15 -16 0 -20 12 -8 23
11 12 23 8 23 -8z m-2910 -10 c0 -8 -7 -15 -15 -15 -8 0 -15 7 -15 15 0 8 7
15 15 15 8 0 15 -7 15 -15z m2928 -53 c2 -7 -3 -12 -12 -12 -9 0 -16 7 -16 16
0 17 22 14 28 -4z m-2948 -8 c0 -9 -5 -14 -12 -12 -18 6 -21 28 -4 28 9 0 16
-7 16 -16z m-16 -59 c-3 -8 -12 -11 -19 -9 -8 3 -11 12 -9 19 3 8 12 11 19 9
8 -3 11 -12 9 -19z m2976 10 c0 -8 -7 -15 -15 -15 -8 0 -15 7 -15 15 0 8 7 15
15 15 8 0 15 -7 15 -15z m-2990 -65 c0 -13 -5 -18 -15 -14 -16 7 -19 17 -8 27
12 13 23 7 23 -13z m3002 5 c0 -5 -5 -11 -11 -13 -6 -2 -11 4 -11 13 0 9 5 15
11 13 6 -2 11 -8 11 -13z m-1482 -14 c0 -11 -60 -93 -99 -134 -47 -52 -107
-70 -151 -47 -15 8 -17 16 -10 46 16 68 87 120 184 134 74 11 76 11 76 1z
m-500 -68 c67 -76 92 -151 74 -220 -8 -30 -29 -29 -72 3 -48 37 -72 97 -79
200 -6 85 -6 86 14 75 12 -6 40 -32 63 -58z m-1030 22 c0 -8 -7 -15 -15 -15
-8 0 -15 7 -15 15 0 8 7 15 15 15 8 0 15 -7 15 -15z m3030 0 c0 -8 -7 -15 -15
-15 -8 0 -15 7 -15 15 0 8 7 15 15 15 8 0 15 -7 15 -15z m-3040 -60 c0 -8 -7
-15 -15 -15 -16 0 -20 12 -8 23 11 12 23 8 23 -8z m3041 0 c1 -17 -18 -17 -25
0 -4 11 -1 15 10 13 8 -2 15 -7 15 -13z m-3041 -60 c0 -8 -7 -15 -15 -15 -8 0
-15 7 -15 15 0 8 7 15 15 15 8 0 15 -7 15 -15z m3050 0 c0 -8 -7 -15 -15 -15
-8 0 -15 7 -15 15 0 8 7 15 15 15 8 0 15 -7 15 -15z m-1615 -125 c-65 -110
-125 -159 -182 -148 -20 4 -25 45 -11 89 15 45 80 98 159 129 41 16 76 24 77
19 2 -5 -17 -45 -43 -89z m-1445 65 c0 -8 -7 -15 -15 -15 -16 0 -20 12 -8 23
11 12 23 8 23 -8z m3068 3 c-6 -18 -28 -21 -28 -4 0 9 7 16 16 16 9 0 14 -5
12 -12z m-2054 -97 c48 -57 65 -96 66 -147 0 -28 -6 -59 -14 -70 -14 -18 -15
-18 -52 12 -21 16 -46 41 -56 55 -20 27 -38 117 -38 193 l0 50 37 -35 c20 -18
46 -45 57 -58z m-1014 34 c0 -8 -7 -15 -15 -15 -8 0 -15 7 -15 15 0 8 7 15 15
15 8 0 15 -7 15 -15z m3070 -10 c0 -16 -6 -25 -15 -25 -9 0 -15 9 -15 25 0 16
6 25 15 25 9 0 15 -9 15 -25z m-3070 -50 c0 -8 -7 -15 -15 -15 -8 0 -15 7 -15
15 0 8 7 15 15 15 8 0 15 -7 15 -15z m3068 -17 c-6 -18 -28 -21 -28 -4 0 9 7
16 16 16 9 0 14 -5 12 -12z m-3058 -43 c0 -8 -7 -15 -15 -15 -8 0 -15 7 -15
15 0 8 7 15 15 15 8 0 15 -7 15 -15z m3050 -20 c0 -8 -7 -15 -15 -15 -8 0 -15
7 -15 15 0 8 7 15 15 15 8 0 15 -7 15 -15z m-1646 -62 c-32 -72 -90 -150 -126
-169 -15 -8 -44 -14 -64 -14 l-37 0 5 45 c6 48 41 104 85 132 13 9 55 27 91
39 37 12 68 23 69 23 1 1 -10 -25 -23 -56z m-1404 22 c0 -8 -7 -15 -15 -15 -8
0 -15 7 -15 15 0 8 7 15 15 15 8 0 15 -7 15 -15z m3044 -20 c-7 -17 -20 -20
-28 -6 -7 10 3 21 20 21 8 0 11 -6 8 -15z m-2108 -57 c86 -90 116 -166 93
-235 -12 -38 -11 -38 -48 -18 -67 34 -96 100 -104 238 -4 70 5 72 59 15z
m-926 17 c0 -8 -7 -15 -15 -15 -8 0 -15 7 -15 15 0 8 7 15 15 15 8 0 15 -7 15
-15z m3028 -17 c-6 -18 -28 -21 -28 -4 0 9 7 16 16 16 9 0 14 -5 12 -12z
m-3018 -43 c0 -8 -7 -15 -15 -15 -8 0 -15 7 -15 15 0 8 7 15 15 15 8 0 15 -7
15 -15z m3004 -20 c-7 -17 -20 -20 -28 -6 -7 10 3 21 20 21 8 0 11 -6 8 -15z
m-2994 -41 c0 -9 -5 -14 -12 -12 -18 6 -21 28 -4 28 9 0 16 -7 16 -16z m2980
-20 c0 -16 -16 -19 -25 -4 -8 13 4 32 16 25 5 -4 9 -13 9 -21z m-1652 -41
c-57 -131 -143 -208 -207 -188 -15 4 -17 13 -11 48 12 79 56 127 151 162 89
33 91 33 67 -22z m-1316 -5 c-15 -15 -26 -4 -18 18 5 13 9 15 18 6 9 -9 9 -15
0 -24z m2958 -7 c0 -13 -12 -20 -25 -14 -8 2 -11 11 -9 18 6 14 34 10 34 -4z
m-2940 -51 c-9 -6 -17 -5 -22 3 -9 15 14 29 27 16 6 -6 5 -13 -5 -19z m848
-19 c67 -56 95 -105 90 -159 -8 -100 -127 1 -143 123 -4 28 -9 58 -12 68 -7
25 0 22 65 -32z m2070 11 c2 -7 -3 -12 -12 -12 -9 0 -16 7 -16 16 0 17 22 14
28 -4z m-2893 -33 c10 -15 -1 -23 -20 -15 -9 3 -13 10 -10 16 8 13 22 13 30
-1z m2873 -21 c-6 -18 -28 -21 -28 -4 0 9 7 16 16 16 9 0 14 -5 12 -12z
m-2856 -50 c-10 -10 -15 -10 -22 2 -6 9 -5 17 3 22 18 11 33 -10 19 -24z
m2831 6 c10 -11 -4 -33 -18 -28 -8 3 -11 12 -8 20 5 15 16 18 26 8z m-2803
-49 c0 -8 -7 -15 -15 -15 -16 0 -20 12 -8 23 11 12 23 8 23 -8z m1173 -40
c-49 -59 -133 -102 -171 -89 -33 11 -39 37 -18 69 27 41 83 64 159 65 l68 0
-38 -45z m1607 19 c0 -17 -22 -14 -28 4 -2 7 3 12 12 12 9 0 16 -7 16 -16z
m-2758 -46 c-15 -15 -26 -4 -18 18 5 13 9 15 18 6 9 -9 9 -15 0 -24z m801 -72
c4 -10 5 -34 1 -52 -15 -83 -84 -2 -84 98 l0 53 38 -40 c21 -22 41 -48 45 -59z
m1932 74 c3 -6 -1 -13 -10 -16 -19 -8 -30 0 -20 15 8 14 22 14 30 1z m-2705
-54 c-15 -15 -33 4 -19 20 10 12 14 12 20 2 5 -7 4 -17 -1 -22z m2674 -11 c-3
-8 -12 -11 -19 -9 -8 3 -11 12 -9 19 3 8 12 11 19 9 8 -3 11 -12 9 -19z
m-2639 -24 c7 -12 -12 -24 -25 -16 -11 7 -4 25 10 25 5 0 11 -4 15 -9z m2615
-21 c0 -13 -19 -22 -30 -15 -14 9 0 34 16 28 8 -3 14 -9 14 -13z m-1921 -66
c45 -39 21 -46 -142 -42 -80 2 -148 5 -151 8 -2 3 -2 24 1 48 l6 42 96 1 c53
0 105 4 116 8 16 7 23 3 34 -17 7 -13 25 -35 40 -48z m289 50 c18 -5 20 -9 10
-21 -17 -20 -83 -53 -108 -53 -12 0 -30 5 -41 10 -16 9 -17 14 -8 33 7 12 17
25 23 29 13 9 92 10 124 2z m244 1 c3 -3 1 -26 -5 -50 l-10 -45 -140 0 -140 0
39 29 c21 15 48 38 58 50 17 18 30 21 106 21 48 0 89 -2 92 -5z m-1197 -16
c10 -15 -1 -23 -20 -15 -9 3 -13 10 -10 16 8 13 22 13 30 -1z m2545 -25 c0
-16 -16 -19 -25 -4 -8 13 4 32 16 25 5 -4 9 -13 9 -21z m-2510 -28 c0 -8 -4
-17 -9 -21 -12 -7 -24 12 -16 25 9 15 25 12 25 -4z m2476 -25 c-4 -5 -13 -8
-22 -4 -11 4 -12 8 -3 20 14 16 36 2 25 -16z m-2446 -35 c-15 -15 -33 4 -19
20 10 12 14 12 20 2 5 -7 4 -17 -1 -22z m2405 -16 c-5 -8 -11 -8 -17 -2 -6 6
-7 16 -3 22 5 8 11 8 17 2 6 -6 7 -16 3 -22z m-2366 -35 c-6 -6 -13 -5 -19 5
-6 9 -5 17 3 22 15 9 29 -14 16 -27z m2336 6 c7 -12 -12 -24 -25 -16 -11 7 -4
25 10 25 5 0 11 -4 15 -9z m-2290 -30 c7 -12 -12 -24 -25 -16 -11 7 -4 25 10
25 5 0 11 -4 15 -9z m2240 -31 c-5 -8 -11 -8 -17 -2 -6 6 -7 16 -3 22 5 8 11
8 17 2 6 -6 7 -16 3 -22z m-2200 -30 c-5 -8 -11 -8 -17 -2 -6 6 -7 16 -3 22 5
8 11 8 17 2 6 -6 7 -16 3 -22z m2160 -10 c-5 -8 -11 -8 -17 -2 -6 6 -7 16 -3
22 5 8 11 8 17 2 6 -6 7 -16 3 -22z m-2120 -30 c-5 -8 -11 -8 -17 -2 -6 6 -7
16 -3 22 5 8 11 8 17 2 6 -6 7 -16 3 -22z m2080 1 c7 -12 -12 -24 -25 -16 -11
7 -4 25 10 25 5 0 11 -4 15 -9z m-2025 -31 c0 -13 -19 -22 -30 -15 -14 9 0 34
16 28 8 -3 14 -9 14 -13z m1980 -16 c0 -17 -22 -14 -28 4 -2 7 3 12 12 12 9 0
16 -7 16 -16z m-1945 -34 c-5 -8 -11 -8 -17 -2 -6 6 -7 16 -3 22 5 8 11 8 17
2 6 -6 7 -16 3 -22z m1895 -14 c-7 -7 -14 -6 -22 2 -10 10 -10 15 2 22 17 11
34 -10 20 -24z m-1845 -14 c0 -18 -20 -15 -23 4 -3 10 1 15 10 12 7 -3 13 -10
13 -16z m1800 -3 c10 -15 -1 -23 -20 -15 -9 3 -13 10 -10 16 8 13 22 13 30 -1z
m-1750 -39 c-5 -8 -11 -8 -17 -2 -6 6 -7 16 -3 22 5 8 11 8 17 2 6 -6 7 -16 3
-22z m1697 -12 c-10 -10 -15 -10 -22 2 -6 9 -5 17 3 22 18 11 33 -10 19 -24z
m-1644 -9 c-2 -6 -8 -10 -13 -10 -5 0 -11 4 -13 10 -2 6 4 11 13 11 9 0 15 -5
13 -11z m1592 -23 c-7 -7 -14 -6 -22 2 -10 10 -10 15 2 22 17 11 34 -10 20
-24z m-1540 -11 c0 -8 -7 -15 -15 -15 -8 0 -15 7 -15 15 0 8 7 15 15 15 8 0
15 -7 15 -15z m1491 -10 c-1 -15 -24 -12 -29 3 -3 9 2 13 12 10 10 -1 17 -7
17 -13z m-1441 -21 c0 -16 -16 -19 -25 -4 -8 13 4 32 16 25 5 -4 9 -13 9 -21z
m1385 -14 c-5 -8 -11 -8 -17 -2 -6 6 -7 16 -3 22 5 8 11 8 17 2 6 -6 7 -16 3
-22z m-1332 4 c10 -11 -4 -33 -18 -28 -8 3 -11 12 -8 20 5 15 16 18 26 8z
m1282 -15 c10 -15 -1 -23 -20 -15 -9 3 -13 10 -10 16 8 13 22 13 30 -1z
m-1225 -25 c0 -16 -16 -19 -25 -4 -8 13 4 32 16 25 5 -4 9 -13 9 -21z m1170 2
c0 -8 -4 -17 -9 -21 -12 -7 -24 12 -16 25 9 15 25 12 25 -4z m-1112 -18 c-6
-18 -28 -21 -28 -4 0 9 7 16 16 16 9 0 14 -5 12 -12z m1051 -23 c-6 -6 -13 -5
-19 5 -6 9 -5 17 3 22 15 9 29 -14 16 -27z m-994 5 c3 -6 -1 -13 -10 -16 -19
-8 -30 0 -20 15 8 14 22 14 30 1z m943 -12 c-6 -18 -28 -21 -28 -4 0 9 7 16
16 16 9 0 14 -5 12 -12z m-888 -13 c0 -8 -7 -15 -15 -15 -8 0 -15 7 -15 15 0
8 7 15 15 15 8 0 15 -7 15 -15z m830 0 c0 -8 -7 -15 -15 -15 -16 0 -20 12 -8
23 11 12 23 8 23 -8z m-770 -10 c0 -8 -7 -15 -15 -15 -8 0 -15 7 -15 15 0 8 7
15 15 15 8 0 15 -7 15 -15z m58 -19 c3 -12 -1 -17 -10 -14 -7 3 -15 13 -16 22
-3 12 1 17 10 14 7 -3 15 -13 16 -22z m650 13 c-2 -6 -8 -10 -13 -10 -5 0 -11
4 -13 10 -2 6 4 11 13 11 9 0 15 -5 13 -11z m-58 -15 c0 -17 -22 -14 -28 4 -2
7 3 12 12 12 9 0 16 -7 16 -16z m-530 -9 c0 -8 -7 -15 -15 -15 -8 0 -15 7 -15
15 0 8 7 15 15 15 8 0 15 -7 15 -15z m470 -1 c0 -17 -22 -14 -28 4 -2 7 3 12
12 12 9 0 16 -7 16 -16z m-412 -5 c-2 -6 -8 -10 -13 -10 -5 0 -11 4 -13 10 -2
6 4 11 13 11 9 0 15 -5 13 -11z m62 -4 c0 -8 -7 -15 -15 -15 -8 0 -15 7 -15
15 0 8 7 15 15 15 8 0 15 -7 15 -15z m238 -3 c2 -7 -3 -12 -12 -12 -9 0 -16 7
-16 16 0 17 22 14 28 -4z m53 3 c1 -17 -18 -17 -25 0 -4 11 -1 15 10 13 8 -2
15 -7 15 -13z m-233 -7 c-6 -18 -28 -21 -28 -4 0 9 7 16 16 16 9 0 14 -5 12
-12z m60 0 c-6 -18 -28 -21 -28 -4 0 9 7 16 16 16 9 0 14 -5 12 -12z m60 0
c-6 -18 -28 -21 -28 -4 0 9 7 16 16 16 9 0 14 -5 12 -12z"/>
</g>
</svg>
